<?xml version="1.0" standalone="no"?>
<!DOCTYPE svg PUBLIC "-//W3C//DTD SVG 20010904//EN"
 "http://www.w3.org/TR/2001/REC-SVG-20010904/DTD/svg10.dtd">
<svg version="1.0" xmlns="http://www.w3.org/2000/svg"
 width="700.000000pt" height="700.000000pt" viewBox="0 0 700.000000 700.000000"
 preserveAspectRatio="xMidYMid meet">
<metadata>
Created by potrace 1.11, written by Peter Selinger 2001-2013
</metadata>
<g transform="translate(0.000000,700.000000) scale(0.100000,-0.100000)"
fill="#000000" stroke="none">
<path d="M2920 6984 c-47 -8 -103 -19 -125 -25 -22 -6 -67 -16 -100 -23 -66
-14 -156 -39 -225 -62 -25 -9 -60 -19 -79 -24 -19 -5 -48 -15 -65 -23 -17 -9
-50 -20 -73 -27 -24 -6 -43 -15 -43 -20 0 -6 -9 -10 -21 -10 -11 0 -46 -12
-77 -26 -121 -55 -323 -157 -328 -165 -3 -5 -20 -16 -37 -25 -51 -24 -130 -72
-162 -97 -5 -4 -32 -22 -60 -39 -27 -18 -54 -37 -60 -44 -5 -6 -35 -27 -65
-46 -30 -20 -68 -49 -85 -64 -28 -26 -144 -126 -173 -149 -31 -24 -252 -246
-252 -253 0 -4 -18 -26 -40 -50 -22 -23 -40 -46 -40 -52 0 -5 -9 -14 -20 -20
-11 -6 -20 -17 -20 -25 0 -7 -9 -17 -20 -20 -11 -3 -20 -13 -20 -20 0 -8 -9
-19 -20 -25 -11 -6 -20 -16 -20 -22 0 -12 -48 -88 -62 -98 -13 -10 -68 -95
-68 -105 0 -6 -9 -16 -20 -23 -11 -7 -20 -20 -20 -31 0 -10 -9 -26 -20 -36
-11 -10 -20 -26 -20 -35 0 -9 -9 -25 -20 -35 -11 -10 -20 -25 -20 -34 0 -9 -9
-24 -20 -34 -11 -9 -20 -23 -20 -31 0 -7 -8 -24 -19 -37 -10 -13 -22 -38 -25
-56 -4 -17 -13 -34 -21 -37 -8 -3 -17 -21 -20 -40 -4 -19 -13 -40 -20 -46 -8
-6 -17 -24 -20 -40 -3 -15 -15 -45 -26 -66 -10 -21 -19 -47 -19 -58 0 -11 -7
-27 -15 -36 -8 -9 -19 -37 -23 -62 -5 -25 -16 -56 -25 -69 -10 -13 -17 -36
-17 -51 0 -16 -9 -45 -20 -65 -11 -21 -20 -55 -20 -76 0 -21 -9 -55 -20 -77
-11 -22 -20 -56 -20 -77 0 -21 -8 -63 -19 -93 -10 -30 -22 -97 -25 -149 -4
-52 -11 -102 -16 -112 -6 -10 -10 -173 -10 -391 0 -297 3 -384 15 -428 8 -30
15 -86 15 -125 1 -39 8 -88 17 -110 8 -22 18 -71 22 -110 4 -38 14 -83 23
-100 8 -16 18 -54 21 -84 4 -30 13 -61 20 -70 8 -9 17 -38 21 -65 3 -27 12
-57 20 -65 8 -9 17 -35 21 -59 4 -23 13 -49 21 -56 7 -8 17 -32 22 -54 5 -22
17 -50 26 -63 9 -13 16 -33 16 -45 0 -11 9 -31 20 -44 11 -13 20 -31 20 -40 0
-10 9 -29 20 -43 11 -14 20 -32 20 -40 0 -8 8 -25 19 -38 10 -13 31 -51 46
-84 16 -33 43 -80 60 -105 17 -25 48 -75 69 -112 21 -38 42 -68 47 -68 5 0 22
-24 38 -53 17 -28 53 -79 81 -112 28 -33 63 -78 78 -100 41 -62 455 -469 507
-499 25 -15 60 -42 78 -60 19 -18 56 -46 83 -61 27 -16 65 -43 84 -61 19 -17
46 -35 60 -39 14 -4 34 -15 45 -25 11 -10 36 -26 55 -35 19 -10 48 -28 63 -41
16 -13 35 -24 42 -24 17 0 103 -45 125 -65 9 -8 26 -15 37 -15 11 0 28 -9 38
-20 10 -11 28 -20 40 -20 12 0 34 -9 48 -20 14 -11 35 -20 46 -20 12 0 39 -9
61 -20 22 -11 46 -20 54 -20 9 0 30 -9 48 -20 18 -11 44 -20 58 -20 14 0 39
-8 55 -18 17 -10 52 -22 79 -25 27 -4 63 -14 79 -22 17 -8 43 -15 59 -15 16 0
54 -9 86 -19 31 -10 89 -22 127 -26 39 -4 90 -14 115 -23 39 -15 106 -17 530
-17 427 0 490 2 530 17 25 9 79 20 120 24 41 4 90 13 107 21 18 7 59 17 91 22
31 5 77 16 102 25 25 8 79 25 120 37 41 11 94 30 118 40 23 10 48 19 55 19 7
0 30 9 52 20 22 11 48 20 58 20 10 0 30 9 44 20 14 11 36 20 48 20 12 0 30 9
40 20 10 11 28 20 40 20 13 0 28 6 34 14 15 17 112 66 133 66 8 0 23 9 34 21
10 12 42 32 69 46 28 14 53 31 57 38 4 7 20 16 35 20 15 3 44 21 64 40 20 18
53 41 73 50 20 10 51 32 69 49 43 41 128 106 140 106 15 0 439 430 471 478 16
24 46 62 66 85 46 52 110 144 110 156 0 6 8 16 18 23 16 12 58 76 104 160 9
17 21 34 26 37 10 6 72 132 72 144 0 4 9 16 20 27 11 11 20 27 20 36 0 9 9 27
20 41 11 14 20 33 20 43 0 9 9 27 20 40 11 13 20 33 20 44 0 12 7 32 16 45 9
13 21 41 26 63 5 22 15 46 22 53 7 8 17 34 20 59 4 24 13 50 21 56 8 6 17 33
20 58 4 26 16 65 26 88 10 22 19 56 19 75 0 19 9 52 20 74 13 25 20 59 20 93
0 29 7 67 16 84 9 18 20 77 25 137 5 58 14 122 19 141 13 48 13 765 0 790 -6
11 -14 68 -19 127 -5 59 -16 125 -25 145 -9 21 -16 52 -16 70 -1 18 -8 51 -16
73 -9 22 -20 69 -25 104 -5 35 -15 72 -24 81 -8 9 -15 28 -15 41 0 14 -9 42
-19 62 -11 21 -22 56 -26 78 -4 22 -12 45 -19 52 -6 6 -16 30 -23 52 -6 22
-18 59 -27 83 -14 37 -15 61 -6 168 14 181 2 390 -24 400 -8 3 -16 18 -19 33
-6 29 -43 92 -72 122 -8 9 -15 20 -15 25 -1 16 -122 114 -142 114 -7 0 -19 9
-26 20 -7 11 -23 20 -37 20 -14 0 -34 9 -45 20 -15 15 -33 20 -77 20 -32 0
-82 3 -110 6 -43 6 -53 10 -53 25 0 11 -52 70 -119 137 -106 104 -140 135
-213 192 -10 8 -42 37 -71 63 -28 27 -76 65 -107 85 -30 19 -59 40 -65 46 -18
20 -151 106 -163 106 -7 0 -12 4 -12 9 0 5 -15 16 -32 26 -71 37 -98 53 -112
64 -27 22 -287 151 -305 151 -10 0 -24 6 -30 14 -7 8 -25 18 -41 21 -15 3 -45
15 -66 26 -21 10 -46 19 -56 19 -10 0 -35 9 -55 20 -21 11 -47 20 -58 20 -11
1 -38 9 -60 20 -22 11 -50 19 -63 20 -12 0 -39 7 -58 15 -20 8 -66 20 -102 26
-37 6 -75 15 -84 20 -9 5 -63 17 -120 26 -140 23 -1064 28 -1198 7z m818 -874
c26 -5 102 -14 169 -19 67 -6 130 -15 140 -20 10 -6 45 -17 78 -25 33 -8 74
-19 90 -25 46 -16 124 -40 184 -57 30 -8 60 -19 65 -23 6 -5 27 -12 46 -16 19
-4 51 -16 70 -26 19 -10 42 -20 50 -23 8 -3 22 -10 30 -15 8 -5 44 -24 80 -41
36 -17 85 -46 110 -65 25 -18 50 -34 57 -34 6 -1 25 -12 41 -26 17 -14 33 -25
37 -25 4 0 38 -24 74 -53 36 -29 86 -67 111 -84 25 -17 99 -85 165 -151 101
-101 122 -127 133 -166 6 -25 16 -46 22 -46 6 0 10 -37 10 -90 0 -78 4 -98 25
-138 14 -26 25 -52 25 -58 0 -6 9 -19 20 -29 11 -10 20 -24 20 -31 0 -7 31
-44 68 -81 75 -74 97 -93 110 -93 5 0 21 -11 36 -25 15 -14 35 -25 44 -25 24
-1 76 -58 94 -105 8 -22 25 -74 38 -115 12 -41 26 -88 32 -105 6 -16 18 -59
28 -95 10 -36 22 -76 28 -90 23 -51 45 -200 54 -370 13 -220 13 -264 0 -480
-14 -232 -37 -347 -103 -525 -11 -28 -19 -60 -19 -72 0 -11 -9 -40 -20 -64
-11 -24 -20 -52 -20 -61 0 -10 -20 -60 -45 -111 -25 -52 -45 -99 -45 -105 0
-13 -36 -81 -55 -102 -7 -8 -16 -27 -20 -42 -4 -14 -15 -34 -26 -44 -10 -9
-19 -24 -19 -33 0 -9 -18 -38 -40 -65 -22 -26 -40 -52 -40 -58 0 -15 -42 -66
-120 -147 -39 -41 -77 -88 -84 -106 -15 -34 -69 -85 -92 -85 -8 0 -22 -17 -31
-37 -17 -41 -33 -57 -78 -78 -16 -8 -70 -53 -119 -100 -49 -47 -93 -85 -98
-85 -11 0 -72 -42 -76 -53 -2 -4 -31 -22 -64 -40 -33 -18 -81 -44 -107 -59
-25 -15 -66 -37 -91 -48 -185 -87 -259 -120 -274 -120 -13 0 -164 -45 -216
-65 -96 -36 -184 -58 -270 -66 -52 -5 -121 -14 -155 -20 -79 -15 -511 -15
-590 0 -34 6 -103 15 -155 20 -86 8 -174 30 -270 66 -53 20 -203 65 -217 65
-26 0 -252 104 -364 168 -26 15 -74 41 -107 59 -33 18 -62 36 -64 40 -4 11
-65 53 -76 53 -5 0 -49 38 -97 85 -49 47 -108 94 -133 106 -34 17 -49 32 -63
64 -13 29 -27 45 -44 49 -29 7 -104 85 -122 125 -6 15 -37 54 -68 87 -31 32
-68 79 -83 104 -14 25 -41 63 -59 84 -18 22 -33 47 -33 56 0 9 -9 25 -20 35
-11 10 -20 26 -20 35 0 9 -12 32 -26 51 -38 51 -127 248 -145 322 -5 21 -14
45 -19 55 -5 9 -16 42 -24 72 -7 30 -18 69 -24 85 -63 188 -81 283 -94 505
-14 226 -14 260 1 473 14 208 42 352 102 522 6 17 18 57 26 90 8 33 18 64 23
70 4 5 12 28 16 50 4 22 15 56 25 75 11 19 19 41 19 48 0 8 9 25 20 39 11 14
20 34 20 43 0 10 7 23 15 30 8 7 17 27 21 46 3 19 9 34 13 34 4 0 21 21 37 48
16 26 35 56 41 67 7 11 22 36 33 55 31 54 42 70 77 108 17 20 38 47 45 61 7
14 19 30 25 34 7 4 13 12 13 18 0 25 343 366 410 406 19 12 44 30 55 40 31 28
93 73 100 73 4 0 20 11 37 25 16 14 35 25 41 26 7 0 32 15 57 34 25 18 70 46
100 60 171 84 218 105 245 111 17 4 35 10 41 15 5 5 35 15 65 23 60 17 138 41
184 57 17 6 53 17 81 24 28 7 60 18 73 24 12 7 77 16 144 22 67 5 151 14 187
19 36 6 83 12 105 14 63 6 311 -3 363 -14z"/>
<path d="M3614 3961 c-37 -9 -52 -20 -114 -83 -50 -50 -77 -119 -86 -223 -7
-73 -10 -78 -34 -65 -18 10 -20 21 -20 138 -1 140 -11 210 -31 223 -8 5 -54 9
-102 9 -74 0 -93 -3 -114 -20 -21 -17 -83 -102 -83 -115 0 -2 -17 -30 -37 -62
-21 -32 -44 -67 -51 -78 -6 -11 -17 -31 -24 -45 -6 -14 -21 -35 -32 -48 -17
-19 -21 -37 -21 -97 0 -106 14 -118 137 -122 125 -5 138 -9 138 -36 0 -12 5
-39 10 -59 9 -32 17 -39 49 -48 44 -12 129 1 142 21 4 7 11 34 14 61 6 40 12
50 42 68 20 11 36 20 37 18 1 -2 16 -25 33 -51 36 -55 97 -107 125 -107 10 0
33 -7 50 -16 32 -17 48 -15 135 10 39 11 66 28 103 65 27 27 50 57 50 66 0 9
8 28 18 42 14 22 18 55 20 175 4 134 2 152 -17 191 -12 24 -21 48 -21 54 0 20
-62 87 -102 112 -45 26 -154 38 -214 22z m122 -290 c8 -80 -3 -223 -19 -233
-44 -29 -77 38 -77 154 0 72 4 96 23 132 21 42 23 43 44 27 17 -12 23 -31 29
-80z"/>
</g>
</svg>
